<?xml version="1.0" encoding="UTF-8"?>
<!DOCTYPE svg PUBLIC "-//W3C//DTD SVG 1.1//EN" "http://www.w3.org/Graphics/SVG/1.1/DTD/svg11.dtd">
<!-- Creator: CorelDRAW 2021.5 (Evaluation Version) -->
<svg xmlns="http://www.w3.org/2000/svg" xml:space="preserve" width="101.6mm" height="203.2mm" version="1.1" style="shape-rendering:geometricPrecision; text-rendering:geometricPrecision; image-rendering:optimizeQuality; fill-rule:evenodd; clip-rule:evenodd"
viewBox="0 0 10160 20320"
 xmlns:xlink="http://www.w3.org/1999/xlink"
 xmlns:xodm="http://www.corel.com/coreldraw/odm/2003">
 <defs>
  <style type="text/css">
   <![CDATA[
    .str0 {stroke:#373435;stroke-width:67.73;stroke-miterlimit:22.9256}
    .fil1 {fill:none}
    .fil0 {fill:#373435}
   ]]>
  </style>
 </defs>
 <g id="Layer_x0020_1">
  <metadata id="CorelCorpID_0Corel-Layer"/>
  <g>
   <path class="fil0" d="M5088.47 -8.47l0 5099.07c0,0 8.46,398.1 -59.27,1423 -67.73,1024.87 -778.94,1143.46 -186.27,2176.83 592.67,1033.36 1176.86,1380.64 254,2253.07 -922.86,872.44 -160.86,1922.75 169.34,2659.65 330.2,736.91 -541.88,1135.02 -626.54,2388.59 -84.65,1253.59 812.81,1023.66 677.34,1802.91 -135.47,779.25 -244.17,662.28 -249.05,1650.09 -0.68,137.54 0.52,300.3 2.16,444.15l18.29 -19897.36zm-9.27 20320l122.82 -211.31 122.82 -211.33 -245.64 0 -3.01 0 -6.01 0 -236.62 0 122.82 211.33 122.82 211.31z"/>
   <path id="_1" class="fil1 str0" d="M5088.47 -8.47l0 5099.07c0,0 8.46,398.1 -59.27,1423 -67.73,1024.87 -778.94,1143.46 -186.27,2176.83 592.67,1033.36 1176.86,1380.64 254,2253.07 -922.86,872.44 -160.86,1922.75 169.34,2659.65 330.2,736.91 -541.88,1135.02 -626.54,2388.59 -84.65,1253.59 812.81,1023.66 677.34,1802.91 -135.47,779.25 -244.17,662.28 -249.05,1650.09 -0.68,137.54 0.52,300.3 2.16,444.15m9.02 422.64l122.82 -211.31 122.82 -211.33 -245.64 0 -3.01 0 -6.01 0 -236.62 0 122.82 211.33 122.82 211.31z"/>
  </g>
 </g>
</svg>
